<?xml version="1.0" encoding="utf-8"?>
<!-- Generator: Adobe Illustrator 25.1.0, SVG Export Plug-In . SVG Version: 6.00 Build 0)  -->
<svg version="1.1" id="Layer_2" xmlns="http://www.w3.org/2000/svg" xmlns:xlink="http://www.w3.org/1999/xlink" x="0px" y="0px"
	 viewBox="0 0 214.32 454.01" style="enable-background:new 0 0 214.32 454.01;" xml:space="preserve">
<style type="text/css">
	.st0{fill:#0A1923;}
	.st1{fill:#B40215;}
	.st2{fill:#B20215;}
	.st3{fill:#9A0212;}
	.st4{fill:#AD0214;}
	.st5{fill:#A70213;}
	.st6{fill:#A00213;}
	.st7{fill:#AE0214;}
	.st8{fill:#A10213;}
	.st9{fill:#A30213;}
	.st10{fill:#A00313;}
	.st11{fill:#A70214;}
	.st12{fill:#A60214;}
	.st13{fill:#A90516;}
	.st14{fill:#A50818;}
	.st15{fill:#223038;}
	.st16{fill:#AC0819;}
	.st17{fill:#AC0214;}
	.st18{fill:#BF3443;}
	.st19{fill:#A20213;}
	.st20{fill:#17262E;}
</style>
<path class="st1" d="M124.79,301.12c3.05,5.92,6.1,11.83,9.14,17.75c-3.85-0.05-6.37,1.52-7.41,5.47c-0.41,1.57-1.99,2.67-3.24,3.77
	c-4.95,4.31-6.62,9.81-6.03,16.16c0.14,1.53,0.26,3.07-0.15,4.57c-0.92,3.36-3.62,4.94-6.68,3.37c-6.47-3.33-13.04-2.54-19.98-2.13
	c-6.48,0.38-8.91,2.61-10.53,8.68c-1.55,5.81-4.94,10.98-4.63,17.5c0.36,7.49,2.49,14.19,6.25,20.54c1.4,2.35,3.34,4.32,3.74,7.35
	c0.24,1.82,2.53,2.44,4.34,2.65c2.2,0.26,4.24,0.68,5,3.05c0.77,2.37-0.7,3.92-2.44,5.27c1.41,1.27,4.01,1.42,3.47,4.14
	c-1.71,1.76-3.38,0.56-4.95-0.17c-5.26-2.45-9.33-6.41-13.15-10.57c1.49,3.21,3.5,6.15,5.95,8.79c0.65,0.71,1.5,1.42,1.13,2.51
	c-0.43,1.25-1.62,0.91-2.52,0.84c-1.48-0.1-3.05,0.54-4.44-0.46c-6.47-1.75-12.82-3.75-17.99-8.3c-1.55-1.36-2.86-0.02-4.2,0.51
	c-7.53,2.97-15.22,4.13-23.2,2.04c0.27-0.36,0.61-0.63,1.03-0.8c0.4-0.17,0.82-0.28,1.25-0.35c5.12-1.16,4.89-1.12,3.98-6.06
	c-0.88-4.8-2.12-9.49-3.28-14.21c-1.48-6.03,0.21-11.3,4.02-15.95c3.51-4.3,7.58-8.11,10.31-13.08c2.4-4.36,1.75-8.89,1.62-13.44
	c-0.04-1.32-1.08-1.77-2.23-2.12c-1.06-0.32-2.71-0.12-2.43-2.06c7.19-2.53,14.49-2.88,21.89-1.01c1.05,0.27,2.15,0.35,3.23,0.51
	c0.5,0.18,1.08,0.27,1.42-0.13c0.33-0.38-0.29-0.57-0.44-0.87c-4.29-3.63-9.46-4.93-15.87-5.31c2.35-2.25,4.08-3.91,5.8-5.56
	c1.7-1.98,3.93-3.35,5.86-5.07c3.21-1.8,4.73-5.31,7.59-7.46c0.87,6.95,5.88,9.51,11.83,10.79c5.88,1.26,11.11,0.02,15.93-3.96
	c3.76-3.1,6.63-6.59,8.64-10.99c1.74-3.81,4.12-7.27,7.52-9.85C122.17,305.77,124.03,303.88,124.79,301.12z"/>
<path class="st2" d="M90.24,418.85c0.51,0.01,4.46,0.06,4.65-0.88c0.14-0.71-1.86-1.85-4.8-2.89c0.33-1.02,1.37-0.78,2.04-1.14
	c1.61-0.87,2.08-2.28,1.74-3.84c-0.33-1.53-1.76-2.03-3.18-2.34c-1.23-0.27-2.57-0.29-3.76-0.47c-4.15-0.65-2.27-4.1-3.56-5.84
	c-2.51-3.4-4.66-6.98-6.21-10.83c-3.34-8.33-4.32-16.92-1.23-25.58c0.91-2.55,2.38-4.89,3.54-7.36c0.34-0.73,0.9-1.74,0.65-2.31
	c-1.66-3.79,2.84-4.17,3.55-6.6c0.04-0.15,0.59-0.33,0.73-0.24c4.78,3.11,9.35-0.88,14.11-0.43c3.94,0.37,7.69,0.86,11.24,2.67
	c4.49,2.29,6.77,0.81,6.52-4.42c-0.22-4.57-0.63-9.07,1.72-13.3c0.89-1.6,1.85-3.07,3.17-4.37c2.44-2.41,5.12-4.56,5.94-8.26
	c1.09-4.91,4.37-1.75,6.82-1.54c1.52,2.19,3.04,4.38,4.56,6.57c-1.47,1.17-3.38,1.1-5.06,1.79c-14.63,6.09-14.76,23.57-1.87,32.09
	c8.67,5.73,18.19,9.78,28.47,11.79c3.79,0.74,7.43,0.18,11.07-1.29c8.41-3.4,12.43-1.35,14.92,7.46c0.84,2.97,1.82,5.87,3.08,8.67
	c2.37,5.26,5.73,9.57,11.67,11.18c1.22,0.33,2.39,0.82,3.15,1.93c0.32,0.66,0.21,1.26-0.24,1.82c-0.83,0.88-1.67,1.76-2.5,2.64
	c-2,1.99-3.65,1.8-6.11,0.12c-7.82-5.34-12.32-12.77-15.03-21.54c-1.26-4.07-3.7-5.89-7.42-4.7c-9.21,2.96-17.74,0.56-26.07-2.97
	c-6.16-2.61-12.54-4.82-18.23-8.48c-0.92-0.59-1.98-1.25-3.09-0.38c-1.04,0.81-0.87,1.99-0.7,3.1c0.64,4.14,1.98,8.15,2.55,12.3
	c1.28,9.27,0.22,17.81-7.44,24.46c-2.97,2.58-2.08,4.89,1.73,6.4c8.83,3.49,14.67-1.06,20.1-7.05c7.04-7.76,15.63-11.49,26.22-9.84
	c4.42,0.69,8.18,2.77,11.49,5.69c1.68,1.48,3.21,3.13,5.15,4.28c1.61,0.95,3.01,1.93,2.82,4.18c-0.19,2.29-1.78,2.99-3.54,3.58
	c-0.68,0.23-1.33,0.42-1.72,1.07c-4.84,1.32-9.68,1.38-14.51-0.07c1.74-1.79,4-1.16,6.09-1.31c0.97,0,1.94,0.15,2.91-0.09
	c1-0.24,1.87-0.64,2.13-1.75c0.26-1.11-0.42-1.78-1.17-2.47c-7.91-7.25-18.44-7.92-27.31-1.77c-3.7,2.56-6.71,5.85-9.9,8.97
	c-5.34,5.23-10.68,6.16-17.55,3.14c-6.24-2.75-12.83-2.16-19.37-1.85c-1.36,0.06-1.36,0.26-2.89,2.5c0.73,0.51,2.32,1.47,4.52,1.62
	c3.52,0.25,5.99-1.72,6.55-2.19c5.91,0.86,8.85,1.63,8.83,2.29c-0.03,0.93-5.78,1.66-17.24,2.21c-1.3-0.13-2.74-0.35-4.27-0.72
	C95.2,421.4,92.35,420.07,90.24,418.85z"/>
<path class="st1" d="M181.91,413.74c-0.16-1.83,1.45-1.74,2.48-2.29c2.12-1.13,2.28-3.76,0.17-4.93c-4.29-2.38-6.95-6.73-11.6-8.8
	c-9.45-4.21-17.82-1.91-25.94,3.27c-4.25,2.72-6.78,7.23-10.88,10.22c-3.29,2.41-6.33,3.71-10.32,2.6c-2-0.56-4.13-0.65-6.13-1.23
	c-3.04-0.88-4.56-5.27-2.28-6.9c10.6-7.59,9.97-18.04,7.74-28.95c-0.58-2.85-1.33-5.67-1.97-8.51c-0.4-1.78,0-3.33,1.6-4.41
	c1.57-1.06,2.55,0.25,3.72,0.92c9.46,5.39,19.34,9.89,29.98,12.35c4.28,0.99,8.78,1.15,13.15-0.63c4.55-1.86,8.16,0.58,9.46,5.45
	c2.54,9.51,8.33,16.77,16.34,22.38c1.65,1.15,2.37-1.24,3.76-0.75C196.09,409.42,189.46,412.44,181.91,413.74z"/>
<path class="st3" d="M164.25,423.73c-2.19,9.66-7.06,17.47-15.77,22.61c-6.34,3.16-13.15,4.42-20.14,4.99
	c-1.27,0.1-2.8,0.47-3.64-0.42c-2.45-2.61-5.55-2.27-8.56-2.21c-3.32,0.07-6.01-1.4-8.42-3.27c-2.5-1.93-4.23-4.85-7.54-5.77
	c-0.38-0.11-0.81-0.49-0.85-0.88c-0.36-3.46-0.05-6.93,1.58-9.96c1.42-2.63,4.88-2.96,6.67-1.69c2.4,1.7,3.82,0.85,5.73-0.08
	c1.25-0.62,2.43,0.01,3.63,0.41c3.3,1.1,6.56,2.25,10.09,2.67c9.67,1.14,16.57-3.61,22.77-10.13c3.83-4.03,7.47-8.35,13.09-10.1
	c1.18-0.73,2.3-0.94,3.22,0.38c0.75,1.08,0.47,1.85-0.01,3.17C164.92,416.69,164.95,420.31,164.25,423.73z"/>
<path class="st3" d="M24.73,411.92c-9.23-3.64-15.67-10.08-19.42-19.23c-1.5-4.58-3.08-8.78-0.64-13.96
	c1.79-3.8,1.78-8.41,3.57-12.61c2.14-5.02,5.73-8.52,9.48-11.9c4.11-3.7,8.59-7.21,14.71-6.96c1.13,0.04,2.48-0.21,1.59,1.69
	c-1.1,1.42-2.2,2.85-3.31,4.27c-0.35,0.86-1.5,2.08,0.8,1.73c0.42-0.34,0.84-0.67,1.26-1.01c1.82-0.61,3.38-1.6,4.62-3.09
	c0.17-0.2,0.39-0.28,0.65-0.21c2.5,0.48,3.98,4.61,2.78,7.75c-1.35,3.53-4.12,5.92-6.78,8.4c-3.58,3.34-7.35,6.56-8.39,11.7
	c-1.37,6.77-1.7,13.52,0.39,20.24c0.79,2.53,2.05,4.96,2.31,7.6C28.59,408.97,28.79,411.91,24.73,411.92z"/>
<path class="st3" d="M83.34,311.24c4.28-7.93,7.48-16.28,9.52-25.06c1.17-2.48,1.28-5.24,2.3-7.85c1.35-3.46,3.82-4.04,6.22-4.47
	c5.99-1.08,12.09-0.98,18.15-0.23c0.09,0.27,0.18,0.54,0.26,0.81c-0.29,5.23,0.29,10.38,1.52,15.45c1.09,4.51-0.9,7.74-5.51,8.24
	c-3.93,0.42-6.34,2.43-7.88,5.93c-1.68,3.83-3.57,7.57-5.42,11.32c-1.56,3.18-4.19,5.22-7.17,6.8c-2.73,1.44-6.02,1.69-8.44,0
	c-3.29-2.31-3.78-6.25-3.69-10.11C83.23,311.8,83.33,311.52,83.34,311.24z"/>
<path class="st3" d="M187.67,340.87c8.23,3.72,15.45,8.65,20,16.75c0.81,1.43,1.86,2.77,2.01,4.5c2.8,7.75,3.78,15.63,1.73,23.73
	c-0.23,0.36-0.46,0.72-0.69,1.08c-4.81,3.95-9.65,2.97-12.1-2.52c-1.25-2.8-2.4-5.64-3.25-8.61c-2.66-9.25-7.49-17.39-13.21-25.04
	c-1.12-1.5-2.37-2.89-1.03-4.84c1.11-1.61-0.63-0.57-0.91-0.89c-1.88-2.12-1.48-4.26,1.28-5.8
	C183.63,339.53,185.74,339.84,187.67,340.87z"/>
<path class="st4" d="M203.69,399.33c-11.54-2.41-15.92-11.05-18.49-21.21c-1.73-6.81-5.25-11.8-13.83-7.29
	c-4.63,2.44-9.5,2.24-14.24,0.79c-11.33-3.46-22.52-7.14-31.25-15.89c-7.1-7.12-6.51-23.51,4.59-28.02
	c2.61-1.06,4.82-3.35,8.03-2.27c1.74,0.05,2.34,1.33,2.89,2.67c-1.85,2.14-4.69,2.33-7.06,3.13c-10.06,3.4-9.73,17.41-3.05,22.71
	c6.41,5.08,13.91,7.62,21.3,10.5c1.94,0.76,3.95,1.39,5.93,2.07c2.45,0.83,4.93,1.1,7.35-0.05c3.7-1.76,7.67-2.43,11.63-3.27
	c3.87-0.82,6.54,0.58,8.5,3.74c2.07,3.35,3.16,7.1,4.36,10.82c1.8,5.59,4.1,10.89,9.17,14.57c3.02,2.19,5.95,2.45,9.23,1.13
	c-0.38,1.65-1.11,3.1-2.43,4.22C205.43,398.21,205.27,399.91,203.69,399.33z"/>
<path class="st5" d="M208.75,393.47c-3.83,3.37-9.29,2.28-13.25-3.11c-2.84-3.87-5.49-7.95-6.28-12.9
	c-0.22-1.35-0.89-2.63-1.34-3.94c-3.38-9.84-6.91-12.52-16-8.05c-8.57,4.21-15.4,1.69-22.9-1.23c-7.76-3.02-16.06-5.46-21.07-12.6
	c-4.52-6.46-4.13-16.33,4.49-20.62c2.83-1.41,5.81-2.46,8.98-2.88c1.71,1.67,3.42,3.35,5.13,5.02c-3.28,0.69-6.65-0.1-9.96,1.52
	c-3.19,1.56-6.39,3.17-6.64,6.75c-0.28,3.94,0.45,8.06,4.3,10.61c5.15,3.41,11.01,5.35,16.53,8.01c3.93,1.89,7.83,3.68,12.38,3.03
	c3.99-0.57,7.62-1.74,9.89-5.41c0.54-0.88,1.91,0.76,2.24-0.75c5.2-3.3,5.11-3.22,8.93,1.26c5.38,6.32,8.13,13.85,10.42,21.61
	c0.92,3.12,2.32,5.92,4.56,8.34c4.03,4.37,7.58,3.99,11.23-1.34l0.01,0c0.32-0.36,0.63-0.33,0.93,0.03
	C211.16,389.27,210.23,391.48,208.75,393.47z"/>
<path class="st6" d="M163.37,411.06c-5.47,1.03-8.57,5.35-12,8.99c-3.57,3.8-7.47,7.16-12.08,9.39c-7.37,3.56-14.95,1.99-22.18-0.71
	c-1.88-0.7-3.08-1.07-4.82-0.07c-1.28,0.74-3.04,1.54-4.32,0.56c-2.7-2.06-5.39-2.19-6.54,0.63c-1,2.47-0.45,5.46-1.72,8
	c-0.08,0.16,0.2,0.71,0.31,0.71c4.87-0.04,6.29,4.67,9.46,6.95c3.59,2.58,7.67,1.36,11.36,2.47c1.39,0.42,4.63-2.02,4.13,2.26
	c-0.02,0.15,3.06-0.09,4.69-0.16c6.49-0.28,12.54-2.55,18.82-3.74c-11.74,7.82-24.1,8.09-36.89,2.98c-1.15-0.46-2.27-1.01-3.4-1.51
	c-3.71-1.12-6.72-3.17-8.63-6.62c-0.5-0.57-1-1.13-1.5-1.7c-0.95-0.95-1.93-1.88-2.31-3.24c-0.31-1.36-0.83-2.61-1.77-3.67
	c-0.23-0.37-0.41-0.76-0.54-1.18c-0.81-4.9-0.38-5.35,6.18-6.4c4.88,0.37,9.63-0.73,14.41-1.38c4.4-0.66,8.52,1.07,12.74,1.71
	c7.4,1.13,13.02-1.71,18.11-6.49c3.75-3.52,7.15-7.43,11.75-9.96c1.49-0.82,3.02-1.48,4.76-1.23
	C163.45,407.95,164.47,408.9,163.37,411.06z"/>
<path class="st7" d="M124.79,301.12c0.32,2.54-0.38,4.28-2.73,5.93c-4.5,3.15-7.27,7.76-9.69,12.74
	c-4.15,8.53-14.58,16.88-25.77,13.28c-3.13-1.01-6.4-2.18-8.98-4.11c-2.21-1.65-1.87-4.81-1.59-7.5c0.75-1.69,1.98-2.99,3.38-4.17
	c1.63,2.03,3.19,4.1,5.21,5.83c4.59,3.92,12.24,3.74,16.38-0.58c2.92-3.05,5.55-6.39,7.04-10.32c1.77-4.68,4.57-8.53,8.98-10.58
	c4.04-1.88,4.13-5.43,5.19-8.71C123.07,295.66,123.93,298.39,124.79,301.12z"/>
<path class="st3" d="M146.59,341.44c2.7,0.61,5.41,1.23,8.11,1.84c1.29,0.34,2.58,0.68,3.62,1.59l-0.01-0.01
	c1.07,0.69,2.57,0.62,3.29,1.9c0.8,0.51,1.61,1.02,2.41,1.53c2.75,1.32,5.77,2.32,6.68,5.77c-0.2,5.8-3.73,8.91-9.66,7.18
	c-9.57-2.79-19.25-5.66-27.02-12.46c-1.44-1.26-3.24-2.54-2.59-4.82c0.76-2.65,3.03-2.95,5.39-2.87
	C140.07,341.3,143.36,340.68,146.59,341.44z"/>
<path class="st8" d="M210.4,386.76c-0.64,2.23-0.74,5.55-3.47,5.53c-2.83-0.02-5.85-0.32-8.38-3.19c-3.93-4.44-4.88-9.76-6.71-14.94
	c-1.98-5.59-5.31-10.52-8.3-15.64c-2.89-4.94-5.5-1.44-8.32-1.1c-3.01-2.65-4.21-6.56-6.67-9.62c-0.84-1.05-1.48-2.23-2.66-2.97
	c-1.17-0.83-2.34-1.66-3.51-2.49c-0.39-0.89-0.24-1.64,0.72-1.99c5.8-2.15,11.78-2.22,17.81-1.34c0.14,0.02,0.19,0.47,0.25,0.74
	c-1.31,0.49-0.83,1.93-1.23,2.53c-1.77,2.6,4.13,1.27,1.83,4.24c-1.89,2.43,1.58,3.26,2.54,4.86c5.05,8.42,10.47,16.63,12.76,26.41
	c0.65,2.79,1.94,5.49,3.29,8.04C201.81,388.59,205.89,388.84,210.4,386.76z"/>
<path class="st7" d="M46.54,346.36c1.3,2.36,5.6-0.66,5.75,2.61c0.22,4.76,1.28,9.69-1.05,14.34c-2.71,5.4-6.9,9.63-10.79,14.13
	c-3.8,4.4-5.76,9.3-4.08,15.3c1.63,5.84,2.77,11.82,4.36,17.67c0.63,2.3,0.51,3.34-2.21,3.22c-1.48-0.06-2.99,0.43-4.48,0.67
	c0.1-7.14-2.06-13.89-3.61-20.74c-0.15-0.67,0.04-1.4-0.06-2.09c-1.3-8.92,1.8-15.96,8.6-21.83c7.05-6.09,8.46-13.75,4.98-22.34
	C44.68,346.62,45.54,346.28,46.54,346.36z"/>
<path class="st9" d="M122.21,292.92c1.1,4.68-0.34,7.82-5.03,9.77c-5.29,2.2-7.09,7.45-9.32,12.18c-1.56,3.32-3.97,6.03-6.36,8.72
	c-3.85,4.33-13.19,4.55-17.3,0.5c-2-1.97-4.8-3.41-4.8-6.8c1.03-2.2,2.31-4.23,3.93-6.05c0.48,2.39,1.51,4.58,1.87,7.07
	c0.42,3,5.15,4.77,8.56,3.38c3.07-1.25,5.92-3.04,7.45-6.21c2.05-4.24,4.05-8.49,6.03-12.76c1.67-3.59,4.28-5.61,8.39-5.66
	c3.76-0.04,6.27-3.33,5.15-6.94c-1.3-4.16-0.8-8.53-1.89-12.69c-0.27-1.02-0.26-2.26,0.9-2.99
	C120.61,280.6,121.41,286.76,122.21,292.92z"/>
<path class="st10" d="M135.65,341.68c-4.24,1.57-4.66,3.58-1.21,6.42c7.87,6.46,17.5,9.29,26.91,12.33c4.8,1.55,7.69-1.07,8.78-6.5
	c2.48,0.07,3.2,1.67,3.3,3.79c-0.53,3.17-5.38,5.86-10.22,6.49c-5.63,0.74-10.27-1.82-14.9-3.99c-4.71-2.22-9.55-4.18-14.12-6.77
	c-5.23-2.97-5.89-8.14-5.51-12.7c0.27-3.28,3.75-5.8,7.78-7.14c3.54-1.18,6.6-2.11,10.06-0.47c1.77,1.25,3.55,2.48,4.96,4.84
	c-5.77-0.78-10.93-0.23-15.89,1.79C134.92,340.42,135.28,341.05,135.65,341.68z"/>
<path class="st8" d="M24.73,411.92c3.39-1.39,3.37-4.28,2.31-6.83c-1.98-4.77-3.46-9.68-3.65-14.75
	c-0.34-9.16,1.12-17.84,9.26-23.88c1.88-1.4,3.56-3.12,5.13-4.88c2.97-3.34,3.01-8.15,0.24-10.93c0.27-0.28,0.55-0.56,0.82-0.84
	c4.43-0.7,7.53,3.25,6.15,7.77c-1.5,4.94-4.32,9.2-8.2,12.36c-9.28,7.55-9.89,16.97-7.03,27.51c0.94,3.47,2.42,6.82,2.59,10.5
	c0.22,4.79-0.85,5.7-5.85,4.79C25.76,412.77,25.16,412.54,24.73,411.92z"/>
<path class="st11" d="M26.5,412.72c3.65,0.41,5.34-0.5,4.78-4.83c-0.51-3.9-1.94-7.46-2.91-11.16c-1.53-5.82-1.46-11.48-0.19-17.23
	c0.55-2.52,1.97-4.47,3.82-6.3c4.61-4.57,9.6-8.79,11.67-15.4c1.22-3.91-0.61-7.51-4.82-8c1.4-1.45,3.39-1.7,5.12-2.5
	c4.13,4.83,4.23,12.84,0,18.14c-3.29,4.11-6.8,8.05-10.3,11.99c-1.58,1.78-2.15,3.74-2.2,6.09c-0.15,7.19,0.16,14.2,3.14,21.01
	c1.29,2.95-0.04,6.51-0.55,9.77c-0.33-0.01-0.65-0.02-0.98-0.04c-1.3-0.73-2.86,0.19-4.13-0.68
	C27.98,413.69,27.13,413.5,26.5,412.72z"/>
<path class="st12" d="M163.37,411.06c-0.43-4.2-3.16-2.7-5.16-1.81c-4.93,2.19-8.54,6.21-12.15,9.99
	c-6.46,6.75-15.98,9.75-24.6,6.28c-2.4-0.97-4.85,0.15-6.91-1.33c0.07-0.69,0.53-1.04,1.1-1.3c0.56-0.25,1.15-0.4,1.72-0.61
	c2.6-1.31,5.28-1.58,8.12-0.88c6.2,1.54,11.51-0.11,16.1-4.47c2.12-2.01,4.44-3.79,6.37-6.01c3.66-4.23,8.88-6.12,13.92-7.03
	c4.67-0.84,8.97,2.4,12.78,5.12c1.39,0.99,1.83,3.19-0.37,4.55c-2.3,0.04-4.6,0.07-6.9,0.11c-1.61,0.05-1.56,1.2-1.62,2.35
	c-0.14,2.64-0.35,5.28-1.52,7.72c-0.21-3.69,0.37-7.32,1.54-10.75c0.51-1.5-0.33-2.12-0.92-2.75
	C164.3,409.6,164.01,410.96,163.37,411.06z"/>
<path class="st6" d="M34.02,348.95c-3.69-1.58-7.16-0.13-10.03,1.67c-5.16,3.22-9.96,7.37-13.12,12.44
	c-2.31,3.7-3.86,8.18-4.75,12.82c-1.08,5.65-1.98,11.13-0.8,16.81c-0.21-0.02-0.41-0.05-0.62-0.09c-4.51-6.97-3.13-14.57-2.38-22.1
	c0.95-1.4,1.25-3.08,1.91-4.61c4.19-9.71,11.21-16.27,21.08-20.41c3.77-1.58,7.32-0.86,10.92-1.52c1.23-0.22,1.94,0.35,1.15,1.7
	C35.71,346.21,35.93,348.66,34.02,348.95z"/>
<path class="st13" d="M37.37,345.66c-3.11,0.07-6.57-1.84-9.17-0.34c-2.45,1.42-5.17,2.07-7.62,3.6
	c-7.53,4.7-13.72,10.14-15.9,19.09c-0.25,1.04-0.45,1.89-1.69,1.99c-0.89-2.86,0.73-5.1,1.84-7.48
	c6.21-12.12,15.58-20.14,29.35-22.35c4.09-0.66,8.2-0.6,13.28,0.39C43.47,342.58,40.42,344.12,37.37,345.66z"/>
<path class="st14" d="M119.54,273.62c-3.75,0.01-7.53,0.31-11.24-0.06c-4.11-0.41-7.34,2-11.06,2.76c-0.39,0.08-0.77,0.72-0.96,1.17
	c-1.17,2.88-2.29,5.79-3.42,8.69c0.3-3.73,0.63-7.45,0.9-11.18c0.09-1.21,0.28-2.28,1.81-2.2
	C103.56,273.2,111.59,272.13,119.54,273.62z"/>
<path class="st8" d="M211.34,386.78c-0.31-0.01-0.62-0.02-0.93-0.03c2.24-6.59,2.08-13.19,0.2-19.82c-0.44-1.57-1.32-3.08-0.94-4.81
	C213.44,370.12,214.09,378.34,211.34,386.78z"/>
<path class="st15" d="M106.7,256.12c7.54,0,15.08,0,22.62,0C121.78,256.75,114.24,256.68,106.7,256.12z"/>
<path class="st15" d="M80.99,255.21c5.03-0.01,10.06-0.03,15.09,0c1.21,0.01,2.56-0.35,3.46,0.91
	C93.35,256.17,87.1,257.13,80.99,255.21z"/>
<path class="st8" d="M37.38,350.86c-0.5,2.57-2.46,2.98-4.62,3.09C34.02,352.5,35.38,351.21,37.38,350.86z"/>
<path class="st6" d="M31.51,354.95c-0.46,0.82-0.95,1.63-2.21,1.95c-0.49-1.65,0.29-2.72,1.42-3.68
	C31.04,353.77,30.47,354.73,31.51,354.95z"/>
<path class="st16" d="M94.43,434.52c0.07-0.56,0.14-1.12,0.2-1.68c2.1,0.33,1.39,2.01,1.57,3.26c-0.25,0.54-0.54,0.56-0.87,0.07
	C95.03,435.62,94.73,435.07,94.43,434.52z"/>
<path class="st1" d="M203.69,399.33c0.88-0.55,1.75-1.1,2.63-1.64c-0.51,1.37-1.15,2.62-2.63,3.19
	C203.69,400.36,203.69,399.84,203.69,399.33z"/>
<path class="st7" d="M28.93,413.59c1.39,0.17,2.92-0.55,4.14,0.68c-0.26,0.09-0.52,0.14-0.79,0.17
	C31.06,414.57,29.9,414.44,28.93,413.59z"/>
<path class="st4" d="M174.29,413.56c0.64-2.54,1.21-4.29-2.82-5.04c-1.75-0.33-4.35-1.93-6.45-3.14c-1.82-1.05-3.08-0.55-4.95-0.09
	c-7.35,1.8-12.04,7.11-17.12,11.96c-5.41,5.17-11.55,7.26-18.9,4.89c-2.64-0.85-4.86,0.67-7.23,1.34c-1.83-1.82-4.16-0.86-6.27-1.12
	c-1.72-0.21-3.54,0.54-5.16-0.55c-1.21-1.24-2.95-0.43-4.36-1.13c-1.02-0.51-1.84-0.63-1.82-2.19c0.02-1.34,0.31-2.03,1.47-2.58
	c1.18-0.56,2.39-0.68,3.66-0.66c5.5,0.07,11-0.24,16.46,0.88c1.8,0.37,2.53,2.1,4.27,2.44c5.35,1.05,10.07,0.37,14.06-3.82
	c4.98-5.23,9.95-10.48,17.21-12.83c7.27-2.36,13.54-0.36,19.53,3.59c0.31,0.21,0.41,0.91,0.7,0.97c2.57,0.57,4.14,2.05,3.33,4.7
	C179.1,413.9,176.56,413.64,174.29,413.56z"/>
<path class="st17" d="M88.61,397.65c-3.82-2.3-6.35-5.46-6.72-10.06c0.29-3.17,1.6-3.24,3.62-1.2c3.24,5.36,7.82,9.19,13.46,11.81
	c0.52,0.18,1.01,0.41,1.48,0.69c1.2,1.14,2.46,1.04,3.76,0.18c1.82-1.03,3.7-1.88,5.4-3.15c5.93-4.45,5.43-10.72,4.34-16.72
	c-0.71-3.87-2.2-7.75-4-11.37c-3.98-7.98-11.84-9.78-19.19-4.79c-2.9,1.97-2.55,4.57-2.83,7.31c-0.15,1.47,0.97,4.45-2.66,3.49
	c-1.87-4.37-2.13-8.73,0.05-13.08c1.28,0.11,1.58-1.19,2.45-1.68c1.53-2.76,3.99-3.7,7.02-3.65c1.81,0.03,3.64,0.07,5.45-0.1
	c4.92-0.45,8.79,1.53,11.6,5.36c5.14,7.01,7.69,14.97,8.17,23.63c0.47,8.6-3.22,14.75-10.83,18.64c-0.75,0.38-1.48,0.78-2.08,1.38
	c-0.98,0.55-1.71,0.62-1.68-0.84c-0.36-0.67-0.99-0.82-1.68-0.84c-1.11,0.86-2.34,0.8-3.47,0.21c-2.61-1.37-5.46-1.58-8.29-1.89
	c-0.56,0-1.12,0-1.68,0C89.53,399.99,90.42,398.14,88.61,397.65z"/>
<path class="st4" d="M107.09,404.35c-0.01-1.73,1.32-2.25,2.54-2.96c7.98-4.69,11.69-13.74,8.89-22.54
	c-1.82-5.71-2.91-11.67-6.82-16.67c-2.99-3.81-6.17-6.14-11.19-5.66c-4.35,0.42-9.03-0.97-12.73,2.58c0.23-3.01,2.25-4.2,4.88-4.85
	c11.82-2.92,19.69,2.42,23.66,11.67c3,6.99,5.73,14.11,5.1,22.04C120.88,394.68,115.03,404.73,107.09,404.35z"/>
<path class="st4" d="M91.97,401c2.23-1.54,4.46-0.99,6.68-0.01c1.64,0.72,3.13,1.88,5.07,1.69c-2.24,6-5.78,0.32-8.67,0.8
	C94.27,403.61,92.51,402.48,91.97,401z"/>
<path class="st4" d="M82.92,382.51c0.71,1.42,1.41,2.83,2.12,4.25c-1.42-1.1-2.44-0.72-3.14,0.84c-2.12-2.63-3.07-8.75-1.68-10.89
	C82.33,378.07,81.07,381.01,82.92,382.51z"/>
<path class="st1" d="M82.92,382.51c-2.37-1.26-1.42-4.05-2.7-5.81c0-0.84-0.01-1.68-0.01-2.51c-0.97-1.11-0.69-2.23-0.01-3.34
	c0.08-3.27-0.2-6.64,2.48-9.22C80.3,368.62,80.65,375.57,82.92,382.51z"/>
<path class="st4" d="M88.61,397.65c0.74-0.19,1.43-1.02,2.24-0.25c1.52,1.45-0.75,2.34-0.56,3.6
	C87.26,401.12,87.6,399.55,88.61,397.65z"/>
<path class="st4" d="M80.19,370.84c0,1.11,0.01,2.23,0.01,3.34c-0.6,0.14-1.39,0.73-1.6-0.35
	C78.34,372.49,78.88,371.43,80.19,370.84z"/>
<path class="st18" d="M85.34,359.11c-0.35-0.72-0.93-0.85-1.64-0.61c0.02-1.27,1.16-2.36,1.87-2.02
	C86.62,356.97,86.17,358.26,85.34,359.11z"/>
<path class="st4" d="M105.41,403.52c0.36,0.67,0.99,0.82,1.68,0.84c-0.54,0.94-1.18,2.1-2.4,1.15
	C103.41,404.5,104.65,404,105.41,403.52z"/>
<path class="st6" d="M29.49,352.12c-0.35-0.32-0.78-0.52-0.85-0.81c-0.15-0.6,0.27-1.02,0.85-0.94c0.28,0.04,0.69,0.5,0.7,0.79
	C30.21,351.43,29.79,351.73,29.49,352.12z"/>
<path class="st16" d="M94.36,432.37c-2-2.5-2.92-5.41-3.82-8.94c3.4,0.99,6.26,1.82,9.13,2.65c-0.14,0.01-0.28,0.03-0.42,0.04
	C95.29,426.39,92.72,427.74,94.36,432.37z"/>
<path class="st19" d="M100.4,397.62c-4.81-4.31-9.25-8.91-11.67-15.06c3.11-0.59,4.97,0.66,5.74,3.73c0.94,3.75,4.02,5.57,7.05,7.26
	c1.9,1.05,3.8,0.48,5.24-1.23c0.54-0.64,0.98-1.35,1.36-2.1c2.81-5.51-1.15-20.72-6.29-24.16c-3.27-2.19-6.98-0.99-9.07,2.81
	c-1.81,3.29-1.12,7.13-2.47,10.49c-0.37,0.93,0.33,2.81-1.84,2.43c-0.95-1.26-1.53-2.65-1.56-4.25c0.08-0.93-0.19-1.76-0.71-2.52
	c-0.03-0.28-0.06-0.57-0.08-0.85c1.17-0.95,0.64-2.3,0.86-3.49c0.44-2.45-1.34-5.38,1.26-7.32c3.91-2.92,8.13-5.7,13.28-4.12
	c3.11,0.96,6.34,2.45,8.02,5.58c3.12,5.83,5.44,11.84,6.12,18.61c0.94,9.38-4.63,14.3-11.89,16.71c-0.68-0.24-1.31-0.58-1.94-0.93
	C101.1,398.89,100.73,398.28,100.4,397.62z"/>
<path class="st4" d="M102.15,398.47c1.06,0.07,1.57,0.66,1.59,1.69c-1.37,1.14-2.6,1.49-3.37-0.63
	C101.36,399.83,101.56,398.84,102.15,398.47z"/>
<path class="st3" d="M88.45,381.8c2.1-4.28,1.24-9.27,3.4-13.57c1.86-3.7,6.7-5.57,10.14-3.61c6.91,3.94,10.5,22.42,5.59,28.63
	c-2.04,2.59-4.92,2.73-7.08,1.2c-3.16-2.24-7.07-4.12-7.28-9.09c-0.09-2.27-3.07-1.67-4.49-2.8
	C88.64,382.31,88.54,382.05,88.45,381.8z"/>
<path class="st17" d="M86.18,375.03c0.87,0.66,2.27,1.18,0.71,2.52C86.23,376.83,86.04,375.98,86.18,375.03z"/>
<path class="st20" d="M106.7,256.12c-2.39,0.46-4.77,0.34-7.15-0.01c-4.36-1.13-8.81-0.21-13.2-0.53c-1.78-0.13-3.61,0.4-5.35-0.37
	c-2.88-0.53-4.54-2.6-5.99-4.86c-3.17-4.94-6.38-9.85-9.33-14.91c-1.21-2.07-2.55-2.53-4.77-2.09c-14.44,2.82-29.12,3.8-43.72,5.39
	c-1.98,0.22-2.86,0.03-2.59-2.24c2.65-21.8,5.81-43.47,15.54-63.53c1.33-2.75,2.9-5.47,4.85-7.8c1.92-2.29,2.15-4.41,1.61-7.24
	c-8.76-45.72,2.65-85.94,33.22-120.97C79.28,26.09,89.08,15.57,99.38,5.5c5.1-4.99,11.7-5.48,16.46-0.7
	c17.9,17.93,35.04,36.48,47.87,58.57c14.43,24.85,19.07,51.57,16.1,79.87c-0.61,5.84-1.38,11.64-2.71,17.37
	c-0.28,1.22-0.57,2.37,0.35,3.56c8.93,11.63,12.64,25.37,15.68,39.33c2.38,10.92,4.03,21.95,4.99,33.1
	c0.27,3.11-0.49,3.86-3.52,3.48c-14.16-1.78-28.39-3.02-42.37-6.01c-2.57-0.55-4.03-0.13-5.42,2.22
	c-3.06,5.16-6.43,10.14-9.75,15.14c-1.82,2.75-4.3,4.55-7.75,4.69C121.78,256.63,114.24,256.63,106.7,256.12z M151.99,95.39H62.74
	v24.76h89.25V95.39z"/>
</svg>
