<?xml version="1.0" encoding="utf-8"?>
<!-- Generator: Adobe Illustrator 25.1.0, SVG Export Plug-In . SVG Version: 6.00 Build 0)  -->
<svg version="1.1" id="Layer_2" xmlns="http://www.w3.org/2000/svg" xmlns:xlink="http://www.w3.org/1999/xlink" x="0px" y="0px"
	 viewBox="0 0 1769 560" style="enable-background:new 0 0 1769 560;" xml:space="preserve">
<style type="text/css">
	.st0{fill:#0A1923;}
	.st1{fill:#B40215;}
	.st2{fill:#B20215;}
	.st3{fill:#9A0212;}
	.st4{fill:#AD0214;}
	.st5{fill:#A70213;}
	.st6{fill:#A00213;}
	.st7{fill:#AE0214;}
	.st8{fill:#A10213;}
	.st9{fill:#A30213;}
	.st10{fill:#A00313;}
	.st11{fill:#A70214;}
	.st12{fill:#A60214;}
	.st13{fill:#A90516;}
	.st14{fill:#A50818;}
	.st15{fill:#223038;}
	.st16{fill:#AC0819;}
	.st17{fill:#AC0214;}
	.st18{fill:#BF3443;}
	.st19{fill:#A20213;}
	.st20{fill:#17262E;}
</style>
<path class="st0" d="M1267.8,364.95c-0.1,24.48-1.67,43.33-8.56,61.33c-12.21,31.94-37.26,42.49-67.4,39.65
	c-27.94-2.64-44.67-19.39-52.32-45c-10.39-34.76-10.29-70,0.64-104.68c6.99-22.17,21.63-37.36,45.47-41.34
	c22.93-3.83,44.15-0.44,60.72,17.73c10.08,11.06,14.97,24.65,17.96,39.02C1266.95,344.42,1267.91,357.35,1267.8,364.95z"/>
<path class="st0" d="M648.62,276.96c-1.3,1.93-2.21,3.28-3.13,4.62c-13.78,20.16-27.52,40.35-41.42,60.43
	c-1.74,2.52-1.82,4.48-0.64,7.19c15.87,36.52,31.64,73.09,47.4,109.66c0.53,1.24,1.49,2.4,1.19,4.13c-13.27,0-26.55-0.06-39.84,0.06
	c-2.44,0.02-2.56-1.61-3.13-3.09c-10.02-26.13-20.04-52.25-30.06-78.38c-0.43-1.12-0.86-2.24-1.59-4.13
	c-5.25,7.61-10.19,14.64-14.92,21.8c-0.67,1.01-0.44,2.69-0.44,4.06c-0.02,18.57-0.11,37.15,0.07,55.72c0.03,3.4-0.99,4.1-4.17,4.04
	c-11.33-0.19-22.67-0.14-34.01-0.02c-2.32,0.02-3.05-0.54-3.05-2.96c0.07-60.05,0.07-120.1,0.01-180.14c0-2.31,0.53-3.07,2.96-3.05
	c11.62,0.13,23.24,0.16,34.85-0.02c2.89-0.04,3.39,0.94,3.38,3.55c-0.09,22.76-0.05,45.52-0.05,68.29c0,1.36,0,2.73,0,5.28
	c1.34-2.11,2.13-3.28,2.84-4.49c13.51-23.11,27.04-46.21,40.44-69.38c1.35-2.33,2.71-3.29,5.51-3.25
	C623.19,277.07,635.58,276.96,648.62,276.96z"/>
<path class="st0" d="M667.91,369.64c0-29.6,0.04-59.21-0.07-88.81c-0.01-2.97,0.49-3.97,3.78-3.95
	c35.27,0.14,70.54,0.13,105.81,0.02c3-0.01,4.08,0.51,3.96,3.8c-0.28,8.09-0.24,16.2-0.02,24.29c0.08,3.04-0.59,3.96-3.83,3.94
	c-21.55-0.17-43.11-0.03-64.66-0.16c-2.99-0.02-4.05,0.5-3.98,3.79c0.23,12.14,0.18,24.3,0.03,36.44c-0.03,2.72,0.67,3.47,3.43,3.45
	c16.09-0.14,32.19,0.09,48.28-0.18c4.02-0.07,4.79,1.22,4.66,4.86c-0.27,7.81-0.21,15.64-0.01,23.45c0.07,2.88-0.63,3.77-3.64,3.74
	c-16.23-0.16-32.47,0.04-48.7-0.17c-3.43-0.04-4.07,1.03-4.03,4.17c0.18,12.29,0.2,24.58-0.01,36.86c-0.06,3.36,0.6,4.42,4.23,4.38
	c21.27-0.2,42.55,0.03,63.82-0.21c3.9-0.04,4.52,1.16,4.42,4.63c-0.25,8.65-0.15,17.31-0.03,25.97c0.03,2.26-0.45,3.09-2.93,3.09
	c-35.83-0.08-71.66-0.11-107.49,0.04c-3.43,0.01-3.04-1.68-3.03-3.81C667.92,429.4,667.91,399.52,667.91,369.64z"/>
<path class="st0" d="M483.53,463c-5.88,0-11.76-0.1-17.63,0.05c-2.33,0.06-3.36-0.5-3.92-3.01c-2.44-10.87-5.24-21.66-7.77-32.52
	c-0.52-2.25-1.29-3.14-3.81-3.11c-15.4,0.14-30.79,0.16-46.19-0.02c-2.81-0.03-3.47,1.19-3.99,3.42
	c-2.49,10.72-5.18,21.4-7.54,32.15c-0.53,2.43-1.38,3.13-3.81,3.1c-10.36-0.14-20.72-0.18-31.07,0.01c-3.4,0.06-3.43-0.89-2.56-3.76
	c12.88-42.51,25.64-85.06,38.43-127.6c5.17-17.2,10.41-34.39,15.48-51.62c0.71-2.41,1.68-3.24,4.26-3.21
	c11.62,0.16,23.24,0.16,34.85,0c2.64-0.04,3.48,0.87,4.18,3.31c17.07,59.86,34.23,119.69,51.45,179.51
	c0.84,2.91,0.05,3.44-2.72,3.35C495.3,462.87,489.41,463,483.53,463z"/>
<path class="st0" d="M1296.2,369.74c0-29.61,0.06-59.22-0.09-88.83c-0.02-3.37,0.96-4.03,4.14-4.02
	c34.16,0.12,68.31,0.13,102.47-0.02c3.59-0.02,4.4,0.99,4.28,4.4c-0.27,7.81-0.24,15.64-0.01,23.46c0.09,3.19-0.65,4.22-4.07,4.19
	c-20.58-0.18-41.16-0.03-61.73-0.16c-2.99-0.02-4.04,0.49-3.99,3.79c0.22,13.82,0.17,27.65,0.03,41.48
	c-0.03,2.72,0.68,3.47,3.44,3.45c15.54-0.14,31.08,0.01,46.61-0.13c2.86-0.03,3.83,0.62,3.75,3.64c-0.22,8.37-0.19,16.76-0.01,25.14
	c0.06,2.67-0.8,3.24-3.32,3.22c-15.54-0.11-31.08,0.05-46.61-0.14c-3.18-0.04-3.9,0.79-3.88,3.9c0.15,22.07,0.03,44.13,0.14,66.2
	c0.01,2.79-0.48,3.84-3.58,3.78c-11.34-0.2-22.68-0.19-34.01,0c-2.99,0.05-3.64-0.78-3.63-3.68
	C1296.25,429.51,1296.2,399.63,1296.2,369.74z"/>
<path class="st0" d="M1420.52,369.99c0-29.75,0.05-59.5-0.08-89.24c-0.01-3.14,0.75-3.87,3.88-3.86c34.3,0.13,68.59,0.13,102.89,0
	c3.34-0.01,4.21,0.88,4.11,4.14c-0.24,7.81-0.35,15.65,0.03,23.46c0.19,3.96-1.24,4.46-4.7,4.43c-20.3-0.16-40.6-0.02-60.89-0.14
	c-3.03-0.02-4.31,0.4-4.25,3.95c0.25,13.68,0.19,27.37,0.03,41.06c-0.03,2.86,0.6,3.74,3.61,3.71c15.4-0.17,30.8,0,46.19-0.15
	c2.99-0.03,4.13,0.47,4.02,3.81c-0.28,8.23-0.2,16.48-0.03,24.72c0.06,2.74-0.71,3.51-3.48,3.48c-15.54-0.14-31.08,0.01-46.61-0.14
	c-2.91-0.03-3.72,0.65-3.71,3.64c0.14,22.07-0.01,44.13,0.16,66.2c0.03,3.43-1.04,4.08-4.19,4.03c-11.06-0.18-22.12-0.2-33.17,0.01
	c-3.11,0.06-3.91-0.68-3.9-3.85C1420.57,429.49,1420.52,399.74,1420.52,369.99z"/>
<path class="st0" d="M328.66,387.16c0,24.01-0.06,48.03,0.08,72.04c0.02,3.1-0.68,3.95-3.86,3.89c-10.91-0.22-21.83-0.25-32.74,0.01
	c-3.62,0.08-4.62-0.73-4.61-4.51c0.15-47.47,0.04-94.93,0.2-142.4c0.01-4.06-0.96-5.09-4.99-4.95c-9.5,0.33-19.03,0-28.54,0.17
	c-2.8,0.05-3.85-0.47-3.77-3.56c0.23-9.21,0.16-18.43,0.03-27.64c-0.04-2.43,0.39-3.33,3.14-3.32c36.66,0.1,73.32,0.1,109.98,0.01
	c2.54-0.01,3.36,0.57,3.31,3.21c-0.17,9.35-0.16,18.71,0,28.06c0.05,2.63-0.75,3.27-3.3,3.23c-10.35-0.14-20.71,0.06-31.06-0.14
	c-3.08-0.06-3.97,0.64-3.95,3.85C328.73,339.14,328.66,363.15,328.66,387.16z"/>
<path class="st1" d="M958.63,352.23c3.05,5.92,6.1,11.83,9.14,17.75c-3.85-0.05-6.37,1.52-7.41,5.47c-0.41,1.57-1.99,2.67-3.24,3.77
	c-4.95,4.31-6.62,9.81-6.03,16.16c0.14,1.53,0.26,3.07-0.15,4.57c-0.92,3.36-3.62,4.94-6.68,3.37c-6.47-3.33-13.04-2.54-19.98-2.13
	c-6.48,0.38-8.91,2.61-10.53,8.68c-1.55,5.81-4.94,10.98-4.63,17.5c0.36,7.49,2.49,14.19,6.25,20.54c1.4,2.35,3.34,4.32,3.74,7.35
	c0.24,1.82,2.53,2.44,4.34,2.65c2.2,0.26,4.24,0.68,5,3.05c0.77,2.37-0.7,3.92-2.44,5.27c1.41,1.27,4.01,1.42,3.47,4.14
	c-1.71,1.76-3.38,0.56-4.95-0.17c-5.26-2.45-9.33-6.41-13.15-10.57c1.49,3.21,3.5,6.15,5.95,8.79c0.65,0.71,1.5,1.42,1.13,2.51
	c-0.43,1.25-1.62,0.91-2.52,0.84c-1.48-0.1-3.05,0.54-4.44-0.46c-6.47-1.75-12.82-3.75-17.99-8.3c-1.55-1.36-2.86-0.02-4.2,0.51
	c-7.53,2.97-15.22,4.13-23.2,2.04c0.27-0.36,0.61-0.63,1.03-0.8c0.4-0.17,0.82-0.28,1.25-0.35c5.12-1.16,4.89-1.12,3.98-6.06
	c-0.88-4.8-2.12-9.49-3.28-14.21c-1.48-6.03,0.21-11.3,4.02-15.95c3.51-4.3,7.58-8.11,10.31-13.08c2.4-4.36,1.75-8.89,1.62-13.44
	c-0.04-1.32-1.08-1.77-2.23-2.12c-1.06-0.32-2.71-0.12-2.43-2.06c7.19-2.53,14.49-2.88,21.89-1.01c1.05,0.27,2.15,0.35,3.23,0.51
	c0.5,0.18,1.08,0.27,1.42-0.13c0.33-0.38-0.29-0.57-0.44-0.87c-4.29-3.63-9.46-4.93-15.87-5.31c2.35-2.25,4.08-3.91,5.8-5.56
	c1.7-1.98,3.93-3.35,5.86-5.07c3.21-1.8,4.73-5.31,7.59-7.46c0.87,6.95,5.88,9.51,11.83,10.79c5.88,1.26,11.11,0.02,15.93-3.96
	c3.76-3.1,6.63-6.59,8.64-10.99c1.74-3.81,4.12-7.27,7.52-9.85C956,356.88,957.87,354.99,958.63,352.23z"/>
<path class="st2" d="M924.07,469.96c0.51,0.01,4.46,0.06,4.65-0.88c0.14-0.71-1.86-1.85-4.8-2.89c0.33-1.02,1.37-0.78,2.04-1.14
	c1.61-0.87,2.08-2.28,1.74-3.84c-0.33-1.53-1.76-2.03-3.18-2.34c-1.23-0.27-2.57-0.29-3.76-0.47c-4.15-0.65-2.27-4.1-3.56-5.84
	c-2.51-3.4-4.66-6.98-6.21-10.83c-3.34-8.33-4.32-16.92-1.23-25.58c0.91-2.55,2.38-4.89,3.54-7.36c0.34-0.73,0.9-1.74,0.65-2.31
	c-1.66-3.79,2.84-4.17,3.55-6.6c0.04-0.15,0.59-0.33,0.73-0.24c4.78,3.11,9.35-0.88,14.11-0.43c3.94,0.37,7.69,0.86,11.24,2.67
	c4.49,2.29,6.77,0.81,6.52-4.42c-0.22-4.57-0.63-9.07,1.72-13.3c0.89-1.6,1.85-3.07,3.17-4.37c2.44-2.41,5.12-4.56,5.94-8.26
	c1.09-4.91,4.37-1.75,6.82-1.54c1.52,2.19,3.04,4.38,4.56,6.57c-1.47,1.17-3.38,1.1-5.06,1.79c-14.63,6.09-14.76,23.57-1.87,32.09
	c8.67,5.73,18.19,9.78,28.47,11.79c3.79,0.74,7.43,0.18,11.07-1.29c8.41-3.4,12.43-1.35,14.92,7.46c0.84,2.97,1.82,5.87,3.08,8.67
	c2.37,5.26,5.73,9.57,11.67,11.18c1.22,0.33,2.39,0.82,3.15,1.93c0.32,0.66,0.21,1.26-0.24,1.82c-0.83,0.88-1.67,1.76-2.5,2.64
	c-2,1.98-3.65,1.8-6.11,0.12c-7.82-5.34-12.32-12.77-15.03-21.54c-1.26-4.07-3.7-5.89-7.42-4.7c-9.21,2.96-17.74,0.56-26.07-2.97
	c-6.16-2.61-12.54-4.82-18.23-8.48c-0.92-0.59-1.98-1.25-3.09-0.38c-1.04,0.81-0.87,1.99-0.7,3.1c0.64,4.14,1.98,8.15,2.55,12.3
	c1.28,9.27,0.22,17.81-7.44,24.46c-2.97,2.58-2.08,4.89,1.73,6.4c8.83,3.49,14.67-1.06,20.1-7.05c7.04-7.76,15.63-11.49,26.22-9.84
	c4.42,0.69,8.18,2.77,11.49,5.69c1.68,1.48,3.21,3.13,5.15,4.28c1.61,0.95,3.01,1.93,2.82,4.18c-0.19,2.29-1.78,2.99-3.54,3.58
	c-0.68,0.23-1.33,0.42-1.72,1.07c-4.84,1.32-9.68,1.38-14.51-0.07c1.74-1.79,4-1.16,6.09-1.31c0.97,0,1.94,0.15,2.91-0.09
	c1-0.24,1.87-0.64,2.13-1.75c0.26-1.11-0.42-1.78-1.17-2.47c-7.91-7.25-18.44-7.92-27.31-1.77c-3.7,2.56-6.71,5.85-9.9,8.97
	c-5.34,5.23-10.68,6.16-17.55,3.14c-6.24-2.75-12.83-2.16-19.37-1.85c-1.36,0.06-1.36,0.26-2.89,2.5c0.73,0.51,2.32,1.47,4.52,1.62
	c3.52,0.25,5.99-1.72,6.55-2.19c5.91,0.86,8.85,1.63,8.83,2.29c-0.03,0.93-5.78,1.66-17.24,2.21c-1.3-0.13-2.74-0.35-4.27-0.72
	C929.03,472.51,926.19,471.18,924.07,469.96z"/>
<path class="st1" d="M1015.74,464.85c-0.16-1.83,1.45-1.74,2.48-2.29c2.12-1.13,2.28-3.76,0.17-4.93c-4.29-2.38-6.95-6.73-11.6-8.8
	c-9.45-4.21-17.82-1.91-25.94,3.27c-4.25,2.72-6.78,7.23-10.88,10.22c-3.29,2.41-6.33,3.71-10.32,2.6c-2-0.56-4.13-0.65-6.13-1.23
	c-3.04-0.88-4.56-5.27-2.28-6.9c10.6-7.59,9.97-18.04,7.74-28.95c-0.58-2.85-1.33-5.67-1.97-8.51c-0.4-1.78,0-3.33,1.6-4.41
	c1.57-1.06,2.55,0.25,3.72,0.92c9.46,5.39,19.34,9.89,29.98,12.35c4.28,0.99,8.78,1.15,13.15-0.63c4.55-1.86,8.16,0.58,9.46,5.45
	c2.54,9.51,8.33,16.77,16.34,22.38c1.65,1.15,2.37-1.24,3.76-0.75C1029.92,460.52,1023.29,463.54,1015.74,464.85z"/>
<path class="st3" d="M998.09,474.84c-2.19,9.66-7.06,17.47-15.77,22.61c-6.34,3.16-13.15,4.42-20.14,4.99
	c-1.27,0.1-2.8,0.47-3.64-0.42c-2.45-2.61-5.55-2.27-8.56-2.21c-3.32,0.07-6.01-1.4-8.42-3.27c-2.5-1.93-4.23-4.85-7.54-5.77
	c-0.38-0.11-0.81-0.49-0.85-0.88c-0.36-3.46-0.05-6.93,1.58-9.96c1.42-2.63,4.88-2.96,6.67-1.69c2.4,1.7,3.82,0.85,5.73-0.08
	c1.25-0.62,2.43,0.01,3.63,0.41c3.3,1.1,6.56,2.25,10.09,2.67c9.67,1.14,16.57-3.61,22.77-10.13c3.83-4.03,7.47-8.35,13.09-10.1
	c1.18-0.73,2.3-0.94,3.22,0.38c0.75,1.08,0.47,1.85-0.01,3.17C998.75,467.8,998.79,471.41,998.09,474.84z"/>
<path class="st3" d="M858.56,463.03c-9.23-3.64-15.67-10.08-19.42-19.23c-1.5-4.58-3.08-8.78-0.64-13.96
	c1.79-3.8,1.78-8.41,3.57-12.61c2.14-5.02,5.73-8.52,9.48-11.9c4.11-3.7,8.59-7.21,14.71-6.96c1.13,0.04,2.48-0.21,1.59,1.69
	c-1.1,1.42-2.2,2.85-3.31,4.27c-0.35,0.86-1.5,2.08,0.8,1.73c0.42-0.34,0.84-0.67,1.26-1.01c1.82-0.61,3.38-1.6,4.62-3.09
	c0.17-0.2,0.39-0.28,0.65-0.21c2.5,0.48,3.98,4.61,2.78,7.75c-1.35,3.53-4.12,5.92-6.78,8.4c-3.58,3.34-7.35,6.56-8.39,11.7
	c-1.37,6.77-1.7,13.52,0.39,20.24c0.79,2.53,2.05,4.96,2.31,7.6C862.43,460.07,862.63,463.02,858.56,463.03z"/>
<path class="st3" d="M917.18,362.35c4.28-7.93,7.48-16.28,9.52-25.06c1.17-2.48,1.28-5.24,2.3-7.85c1.35-3.46,3.82-4.04,6.22-4.47
	c5.99-1.08,12.09-0.98,18.15-0.23c0.09,0.27,0.18,0.54,0.26,0.81c-0.29,5.23,0.29,10.38,1.52,15.45c1.09,4.51-0.9,7.74-5.51,8.24
	c-3.93,0.42-6.34,2.43-7.88,5.93c-1.68,3.83-3.57,7.57-5.42,11.32c-1.56,3.18-4.19,5.22-7.17,6.8c-2.73,1.44-6.02,1.69-8.44,0
	c-3.29-2.31-3.78-6.25-3.69-10.11C917.07,362.9,917.16,362.63,917.18,362.35z"/>
<path class="st3" d="M1021.5,391.98c8.23,3.72,15.45,8.65,20,16.75c0.81,1.43,1.86,2.77,2.01,4.5c2.8,7.75,3.78,15.63,1.73,23.73
	c-0.23,0.36-0.46,0.72-0.69,1.08c-4.81,3.95-9.65,2.97-12.1-2.52c-1.25-2.8-2.4-5.64-3.25-8.61c-2.66-9.25-7.49-17.39-13.21-25.04
	c-1.12-1.5-2.37-2.89-1.03-4.84c1.11-1.61-0.63-0.57-0.91-0.89c-1.88-2.12-1.48-4.26,1.28-5.8
	C1017.46,390.64,1019.58,390.95,1021.5,391.98z"/>
<path class="st4" d="M1037.52,450.43c-11.54-2.41-15.92-11.05-18.49-21.21c-1.73-6.81-5.25-11.8-13.83-7.29
	c-4.63,2.44-9.5,2.24-14.24,0.79c-11.33-3.46-22.52-7.14-31.25-15.89c-7.1-7.12-6.51-23.51,4.59-28.02
	c2.61-1.06,4.82-3.35,8.03-2.27c1.74,0.05,2.34,1.33,2.89,2.67c-1.85,2.14-4.69,2.33-7.06,3.13c-10.06,3.4-9.73,17.41-3.05,22.71
	c6.41,5.08,13.91,7.62,21.3,10.5c1.94,0.76,3.95,1.39,5.93,2.07c2.45,0.83,4.93,1.1,7.35-0.05c3.7-1.76,7.67-2.43,11.63-3.27
	c3.87-0.82,6.54,0.58,8.5,3.74c2.07,3.35,3.16,7.1,4.36,10.82c1.8,5.59,4.1,10.89,9.17,14.57c3.02,2.19,5.95,2.45,9.23,1.13
	c-0.38,1.65-1.11,3.1-2.43,4.22C1039.26,449.32,1039.11,451.01,1037.52,450.43z"/>
<path class="st5" d="M1042.59,444.57c-3.83,3.37-9.29,2.28-13.25-3.11c-2.84-3.87-5.49-7.95-6.28-12.9
	c-0.22-1.35-0.89-2.63-1.34-3.94c-3.38-9.84-6.91-12.52-16-8.05c-8.57,4.21-15.4,1.69-22.9-1.23c-7.76-3.02-16.06-5.46-21.07-12.6
	c-4.52-6.46-4.13-16.33,4.49-20.62c2.83-1.41,5.81-2.46,8.98-2.88c1.71,1.67,3.42,3.35,5.13,5.02c-3.28,0.69-6.65-0.1-9.96,1.52
	c-3.19,1.56-6.39,3.17-6.64,6.75c-0.28,3.94,0.45,8.06,4.3,10.61c5.15,3.41,11.01,5.35,16.53,8.01c3.93,1.89,7.83,3.68,12.38,3.03
	c3.99-0.57,7.62-1.74,9.89-5.41c0.54-0.88,1.91,0.76,2.24-0.75c5.2-3.3,5.11-3.22,8.93,1.26c5.38,6.32,8.13,13.85,10.42,21.61
	c0.92,3.12,2.32,5.92,4.56,8.34c4.03,4.37,7.58,3.99,11.23-1.34l0.01,0c0.32-0.36,0.63-0.33,0.93,0.03
	C1044.99,440.38,1044.06,442.58,1042.59,444.57z"/>
<path class="st6" d="M997.21,462.17c-5.47,1.03-8.57,5.35-12,8.99c-3.57,3.8-7.47,7.16-12.08,9.39c-7.37,3.56-14.95,1.99-22.18-0.71
	c-1.88-0.7-3.08-1.07-4.82-0.07c-1.28,0.74-3.04,1.54-4.32,0.56c-2.7-2.06-5.39-2.19-6.54,0.63c-1,2.47-0.45,5.46-1.72,8
	c-0.08,0.16,0.2,0.71,0.31,0.71c4.87-0.04,6.29,4.67,9.46,6.95c3.59,2.58,7.67,1.36,11.36,2.47c1.39,0.42,4.63-2.02,4.13,2.26
	c-0.02,0.15,3.06-0.09,4.69-0.16c6.49-0.28,12.54-2.55,18.82-3.74c-11.74,7.82-24.1,8.09-36.89,2.98c-1.15-0.46-2.27-1.01-3.4-1.51
	c-3.71-1.12-6.72-3.17-8.63-6.62c-0.5-0.57-1-1.13-1.5-1.7c-0.95-0.95-1.93-1.88-2.31-3.24c-0.31-1.36-0.83-2.61-1.77-3.67
	c-0.23-0.37-0.41-0.76-0.54-1.18c-0.81-4.9-0.38-5.35,6.18-6.4c4.88,0.37,9.63-0.73,14.41-1.38c4.4-0.66,8.52,1.07,12.74,1.71
	c7.4,1.13,13.02-1.71,18.11-6.49c3.75-3.52,7.15-7.43,11.75-9.96c1.49-0.82,3.02-1.48,4.76-1.23
	C997.28,459.06,998.31,460.01,997.21,462.17z"/>
<path class="st7" d="M958.63,352.23c0.32,2.54-0.38,4.28-2.73,5.93c-4.5,3.15-7.27,7.76-9.69,12.74
	c-4.15,8.53-14.58,16.88-25.77,13.28c-3.13-1.01-6.4-2.18-8.98-4.11c-2.21-1.65-1.87-4.81-1.59-7.5c0.75-1.69,1.98-2.99,3.38-4.17
	c1.63,2.03,3.19,4.1,5.21,5.83c4.59,3.92,12.24,3.74,16.38-0.58c2.92-3.05,5.55-6.39,7.04-10.32c1.77-4.68,4.57-8.53,8.98-10.58
	c4.04-1.88,4.13-5.43,5.19-8.71C956.91,346.77,957.77,349.5,958.63,352.23z"/>
<path class="st3" d="M980.43,392.55c2.7,0.61,5.41,1.23,8.11,1.84c1.29,0.34,2.58,0.68,3.62,1.59l-0.01-0.01
	c1.07,0.69,2.57,0.62,3.29,1.9c0.8,0.51,1.61,1.02,2.41,1.53c2.75,1.32,5.77,2.32,6.68,5.77c-0.2,5.8-3.73,8.91-9.66,7.18
	c-9.57-2.79-19.25-5.66-27.02-12.46c-1.44-1.26-3.24-2.54-2.59-4.82c0.76-2.65,3.03-2.95,5.39-2.87
	C973.91,392.41,977.19,391.79,980.43,392.55z"/>
<path class="st8" d="M1044.24,437.87c-0.64,2.23-0.74,5.55-3.47,5.53c-2.83-0.02-5.85-0.32-8.38-3.19
	c-3.93-4.44-4.88-9.76-6.71-14.94c-1.98-5.59-5.3-10.52-8.3-15.64c-2.89-4.94-5.5-1.44-8.32-1.1c-3.01-2.65-4.21-6.56-6.67-9.62
	c-0.84-1.05-1.48-2.23-2.66-2.97c-1.17-0.83-2.34-1.66-3.51-2.49c-0.39-0.89-0.24-1.64,0.72-1.99c5.8-2.15,11.78-2.22,17.81-1.34
	c0.14,0.02,0.19,0.47,0.25,0.74c-1.31,0.49-0.83,1.93-1.23,2.53c-1.77,2.6,4.13,1.27,1.83,4.24c-1.89,2.43,1.58,3.26,2.54,4.86
	c5.05,8.42,10.47,16.63,12.76,26.41c0.65,2.79,1.94,5.49,3.29,8.04C1035.64,439.7,1039.72,439.95,1044.24,437.87z"/>
<path class="st7" d="M880.38,397.47c1.3,2.36,5.6-0.66,5.75,2.61c0.22,4.76,1.28,9.69-1.05,14.34c-2.71,5.4-6.9,9.63-10.79,14.13
	c-3.8,4.4-5.76,9.3-4.08,15.3c1.63,5.84,2.77,11.82,4.36,17.67c0.63,2.3,0.51,3.34-2.21,3.22c-1.48-0.06-2.99,0.43-4.48,0.67
	c0.1-7.14-2.06-13.89-3.61-20.74c-0.15-0.67,0.04-1.4-0.06-2.09c-1.3-8.92,1.8-15.96,8.6-21.83c7.05-6.09,8.46-13.75,4.98-22.34
	C878.52,397.73,879.37,397.38,880.38,397.47z"/>
<path class="st9" d="M956.04,344.03c1.1,4.68-0.34,7.82-5.03,9.77c-5.29,2.2-7.09,7.45-9.32,12.18c-1.56,3.32-3.97,6.03-6.36,8.72
	c-3.85,4.33-13.19,4.55-17.3,0.5c-2-1.97-4.8-3.41-4.8-6.8c1.03-2.2,2.31-4.23,3.93-6.05c0.48,2.39,1.51,4.58,1.87,7.07
	c0.42,3,5.15,4.77,8.56,3.38c3.07-1.25,5.92-3.04,7.45-6.21c2.05-4.24,4.05-8.49,6.03-12.76c1.66-3.59,4.28-5.61,8.39-5.66
	c3.76-0.04,6.27-3.33,5.15-6.94c-1.3-4.16-0.8-8.53-1.89-12.69c-0.27-1.02-0.26-2.26,0.9-2.99
	C954.44,331.71,955.24,337.87,956.04,344.03z"/>
<path class="st10" d="M969.49,392.79c-4.24,1.57-4.66,3.58-1.21,6.42c7.87,6.46,17.5,9.29,26.91,12.33c4.8,1.55,7.69-1.07,8.78-6.5
	c2.48,0.07,3.2,1.67,3.3,3.79c-0.53,3.17-5.38,5.86-10.22,6.49c-5.63,0.74-10.27-1.82-14.9-3.99c-4.71-2.22-9.55-4.18-14.12-6.77
	c-5.23-2.97-5.89-8.14-5.51-12.7c0.27-3.28,3.75-5.8,7.78-7.14c3.54-1.18,6.6-2.11,10.06-0.47c1.77,1.25,3.55,2.48,4.96,4.84
	c-5.77-0.78-10.93-0.23-15.89,1.79C968.75,391.53,969.11,392.16,969.49,392.79z"/>
<path class="st8" d="M858.56,463.03c3.39-1.39,3.37-4.28,2.31-6.83c-1.98-4.77-3.46-9.68-3.65-14.75
	c-0.34-9.16,1.12-17.84,9.26-23.88c1.88-1.4,3.56-3.12,5.13-4.88c2.97-3.34,3.01-8.15,0.24-10.93c0.27-0.28,0.55-0.56,0.82-0.84
	c4.43-0.7,7.53,3.25,6.15,7.77c-1.5,4.94-4.32,9.2-8.2,12.36c-9.28,7.55-9.89,16.97-7.03,27.51c0.94,3.47,2.42,6.82,2.59,10.5
	c0.22,4.79-0.85,5.7-5.85,4.79C859.6,463.88,858.99,463.65,858.56,463.03z"/>
<path class="st11" d="M860.33,463.83c3.65,0.41,5.34-0.5,4.78-4.83c-0.51-3.9-1.94-7.46-2.91-11.16
	c-1.53-5.82-1.46-11.48-0.19-17.23c0.55-2.52,1.97-4.47,3.82-6.3c4.61-4.57,9.6-8.79,11.67-15.4c1.22-3.91-0.61-7.51-4.82-8
	c1.4-1.45,3.39-1.7,5.12-2.5c4.13,4.83,4.23,12.84,0,18.14c-3.29,4.11-6.8,8.05-10.3,11.99c-1.58,1.78-2.15,3.74-2.2,6.09
	c-0.15,7.19,0.16,14.2,3.14,21.01c1.29,2.95-0.04,6.51-0.55,9.77c-0.33-0.01-0.65-0.02-0.98-0.04c-1.3-0.73-2.86,0.19-4.13-0.68
	C861.82,464.79,860.97,464.61,860.33,463.83z"/>
<path class="st12" d="M997.21,462.17c-0.43-4.2-3.16-2.7-5.16-1.81c-4.93,2.19-8.54,6.21-12.15,9.99
	c-6.46,6.75-15.98,9.75-24.6,6.28c-2.4-0.97-4.85,0.15-6.91-1.33c0.07-0.69,0.53-1.04,1.1-1.3c0.56-0.25,1.15-0.4,1.72-0.61
	c2.6-1.31,5.28-1.58,8.12-0.88c6.2,1.54,11.51-0.11,16.1-4.47c2.12-2.01,4.44-3.79,6.37-6.01c3.66-4.23,8.88-6.12,13.92-7.03
	c4.67-0.84,8.97,2.4,12.78,5.12c1.39,0.99,1.83,3.19-0.37,4.55c-2.3,0.04-4.6,0.07-6.9,0.11c-1.61,0.05-1.56,1.2-1.62,2.35
	c-0.14,2.64-0.35,5.28-1.52,7.72c-0.21-3.69,0.37-7.32,1.54-10.75c0.51-1.5-0.33-2.12-0.92-2.75
	C998.13,460.71,997.84,462.06,997.21,462.17z"/>
<path class="st6" d="M867.85,400.06c-3.69-1.58-7.16-0.13-10.03,1.67c-5.16,3.22-9.96,7.37-13.12,12.44
	c-2.31,3.7-3.86,8.18-4.75,12.82c-1.08,5.65-1.98,11.13-0.8,16.81c-0.21-0.02-0.41-0.05-0.62-0.09c-4.51-6.97-3.13-14.57-2.38-22.1
	c0.95-1.4,1.25-3.08,1.91-4.61c4.19-9.71,11.21-16.27,21.08-20.41c3.77-1.58,7.32-0.86,10.92-1.52c1.23-0.22,1.94,0.35,1.15,1.7
	C869.55,397.32,869.76,399.77,867.85,400.06z"/>
<path class="st13" d="M871.21,396.77c-3.11,0.07-6.57-1.84-9.17-0.34c-2.45,1.42-5.17,2.07-7.62,3.6
	c-7.53,4.7-13.72,10.14-15.9,19.09c-0.25,1.04-0.45,1.89-1.69,1.99c-0.89-2.86,0.73-5.1,1.84-7.48
	c6.21-12.12,15.58-20.14,29.35-22.35c4.09-0.66,8.2-0.6,13.28,0.39C877.3,393.69,874.26,395.23,871.21,396.77z"/>
<path class="st14" d="M953.38,324.73c-3.75,0.01-7.53,0.31-11.24-0.06c-4.11-0.41-7.34,2-11.06,2.76c-0.39,0.08-0.77,0.72-0.96,1.17
	c-1.17,2.88-2.29,5.79-3.42,8.69c0.3-3.73,0.63-7.45,0.9-11.18c0.09-1.21,0.28-2.28,1.81-2.2
	C937.39,324.31,945.43,323.24,953.38,324.73z"/>
<path class="st8" d="M1045.17,437.89c-0.31-0.01-0.62-0.02-0.93-0.03c2.24-6.59,2.08-13.19,0.2-19.82
	c-0.44-1.57-1.32-3.08-0.94-4.81C1047.27,421.23,1047.92,429.45,1045.17,437.89z"/>
<path class="st15" d="M940.54,307.23c7.54,0,15.08,0,22.62,0C955.62,307.85,948.08,307.78,940.54,307.23z"/>
<path class="st15" d="M914.83,306.32c5.03-0.01,10.06-0.03,15.09,0c1.21,0.01,2.56-0.35,3.46,0.91
	C927.18,307.28,920.93,308.24,914.83,306.32z"/>
<path class="st8" d="M871.21,401.97c-0.5,2.57-2.46,2.98-4.62,3.09C867.86,403.61,869.22,402.32,871.21,401.97z"/>
<path class="st6" d="M865.34,406.06c-0.46,0.82-0.95,1.63-2.21,1.95c-0.49-1.65,0.29-2.72,1.42-3.68
	C864.88,404.88,864.31,405.84,865.34,406.06z"/>
<path class="st16" d="M928.26,485.63c0.07-0.56,0.14-1.12,0.2-1.68c2.1,0.33,1.39,2.01,1.57,3.26c-0.25,0.54-0.54,0.56-0.87,0.07
	C928.87,486.73,928.56,486.18,928.26,485.63z"/>
<path class="st1" d="M1037.52,450.43c0.88-0.55,1.75-1.1,2.63-1.64c-0.51,1.37-1.15,2.62-2.63,3.19
	C1037.52,451.47,1037.52,450.95,1037.52,450.43z"/>
<path class="st7" d="M862.76,464.7c1.39,0.17,2.92-0.55,4.14,0.68c-0.26,0.09-0.52,0.14-0.79,0.17
	C864.89,465.67,863.74,465.55,862.76,464.7z"/>
<path class="st4" d="M1008.13,464.67c0.64-2.54,1.21-4.29-2.82-5.04c-1.75-0.33-4.35-1.93-6.45-3.14c-1.82-1.05-3.08-0.55-4.95-0.09
	c-7.35,1.8-12.04,7.11-17.12,11.96c-5.41,5.17-11.55,7.26-18.9,4.89c-2.64-0.85-4.86,0.67-7.23,1.34c-1.83-1.82-4.16-0.86-6.27-1.12
	c-1.72-0.21-3.54,0.54-5.16-0.55c-1.21-1.24-2.95-0.43-4.36-1.13c-1.02-0.51-1.84-0.63-1.82-2.19c0.02-1.34,0.31-2.03,1.47-2.58
	c1.18-0.56,2.39-0.68,3.66-0.66c5.5,0.07,11-0.24,16.46,0.88c1.8,0.37,2.53,2.1,4.27,2.44c5.35,1.05,10.07,0.37,14.06-3.82
	c4.98-5.23,9.95-10.48,17.21-12.83c7.27-2.36,13.54-0.36,19.53,3.59c0.32,0.21,0.41,0.91,0.7,0.97c2.57,0.57,4.14,2.05,3.33,4.7
	C1012.93,465.01,1010.39,464.75,1008.13,464.67z"/>
<path class="st17" d="M922.45,448.76c-3.82-2.3-6.35-5.46-6.72-10.06c0.29-3.17,1.6-3.24,3.62-1.2c3.24,5.36,7.82,9.19,13.46,11.81
	c0.52,0.18,1.01,0.41,1.48,0.69c1.2,1.14,2.46,1.04,3.76,0.18c1.82-1.03,3.7-1.88,5.4-3.15c5.93-4.45,5.43-10.72,4.34-16.72
	c-0.71-3.87-2.2-7.75-4-11.37c-3.98-7.98-11.84-9.78-19.19-4.79c-2.9,1.97-2.55,4.57-2.83,7.31c-0.15,1.47,0.97,4.45-2.66,3.49
	c-1.87-4.37-2.13-8.73,0.05-13.08c1.28,0.11,1.58-1.19,2.45-1.68c1.53-2.76,3.99-3.7,7.02-3.65c1.81,0.03,3.64,0.07,5.45-0.1
	c4.92-0.45,8.79,1.53,11.6,5.36c5.14,7.01,7.69,14.97,8.17,23.63c0.47,8.6-3.22,14.75-10.83,18.64c-0.75,0.38-1.48,0.78-2.08,1.38
	c-0.98,0.55-1.71,0.62-1.68-0.84c-0.36-0.67-0.99-0.82-1.68-0.84c-1.11,0.86-2.34,0.8-3.47,0.21c-2.61-1.37-5.46-1.58-8.29-1.89
	c-0.56,0-1.12,0-1.68,0C923.36,451.1,924.26,449.25,922.45,448.76z"/>
<path class="st4" d="M940.93,455.46c-0.01-1.73,1.32-2.25,2.54-2.96c7.98-4.69,11.69-13.74,8.89-22.54
	c-1.82-5.71-2.91-11.67-6.82-16.67c-2.99-3.81-6.17-6.14-11.19-5.66c-4.35,0.42-9.03-0.97-12.73,2.58c0.23-3.01,2.25-4.2,4.88-4.85
	c11.82-2.92,19.69,2.42,23.66,11.67c3,6.99,5.73,14.11,5.1,22.04C954.72,445.78,948.87,455.84,940.93,455.46z"/>
<path class="st4" d="M925.81,452.11c2.23-1.54,4.46-0.99,6.68-0.01c1.64,0.72,3.13,1.88,5.07,1.69c-2.24,6-5.78,0.32-8.67,0.8
	C928.1,454.72,926.34,453.59,925.81,452.11z"/>
<path class="st4" d="M916.75,433.62c0.71,1.42,1.41,2.83,2.12,4.25c-1.42-1.1-2.44-0.72-3.14,0.84c-2.12-2.63-3.07-8.75-1.68-10.89
	C916.16,429.18,914.91,432.12,916.75,433.62z"/>
<path class="st1" d="M916.75,433.62c-2.37-1.26-1.42-4.05-2.7-5.81c0-0.84-0.01-1.68-0.01-2.51c-0.97-1.11-0.69-2.23-0.01-3.34
	c0.08-3.27-0.2-6.64,2.48-9.22C914.14,419.72,914.48,426.68,916.75,433.62z"/>
<path class="st4" d="M922.45,448.76c0.74-0.19,1.43-1.02,2.24-0.25c1.52,1.45-0.75,2.34-0.56,3.6
	C921.09,452.23,921.44,450.66,922.45,448.76z"/>
<path class="st4" d="M914.03,421.95c0,1.11,0.01,2.23,0.01,3.34c-0.6,0.14-1.39,0.73-1.6-0.35
	C912.17,423.6,912.71,422.54,914.03,421.95z"/>
<path class="st18" d="M919.18,410.22c-0.35-0.72-0.93-0.85-1.64-0.61c0.02-1.27,1.16-2.36,1.87-2.02
	C920.45,408.08,920,409.37,919.18,410.22z"/>
<path class="st4" d="M939.25,454.62c0.36,0.67,0.99,0.82,1.68,0.84c-0.54,0.94-1.18,2.1-2.4,1.15
	C937.25,455.61,938.49,455.11,939.25,454.62z"/>
<path class="st6" d="M863.32,403.23c-0.35-0.32-0.78-0.52-0.85-0.81c-0.15-0.6,0.27-1.02,0.85-0.94c0.28,0.04,0.69,0.5,0.7,0.79
	C864.04,402.54,863.63,402.84,863.32,403.23z"/>
<path class="st16" d="M928.2,483.48c-2-2.5-2.92-5.41-3.82-8.94c3.4,0.99,6.26,1.82,9.13,2.65c-0.14,0.01-0.28,0.03-0.42,0.04
	C929.13,477.5,926.55,478.85,928.2,483.48z"/>
<path class="st19" d="M934.23,448.73c-4.81-4.31-9.25-8.91-11.67-15.06c3.11-0.59,4.97,0.66,5.74,3.73
	c0.94,3.75,4.02,5.57,7.05,7.26c1.9,1.05,3.8,0.48,5.24-1.23c0.54-0.64,0.98-1.35,1.36-2.1c2.81-5.51-1.15-20.72-6.29-24.16
	c-3.27-2.19-6.98-0.99-9.07,2.81c-1.81,3.29-1.12,7.13-2.47,10.49c-0.37,0.93,0.33,2.81-1.84,2.43c-0.95-1.26-1.53-2.65-1.56-4.25
	c0.08-0.93-0.19-1.76-0.71-2.52c-0.03-0.28-0.06-0.57-0.08-0.85c1.17-0.95,0.64-2.3,0.86-3.49c0.44-2.45-1.34-5.38,1.26-7.32
	c3.91-2.92,8.13-5.7,13.28-4.12c3.11,0.96,6.34,2.45,8.02,5.58c3.12,5.83,5.44,11.84,6.12,18.61c0.94,9.38-4.63,14.3-11.89,16.71
	c-0.68-0.24-1.31-0.58-1.94-0.93C934.94,450,934.56,449.39,934.23,448.73z"/>
<path class="st4" d="M935.98,449.57c1.06,0.07,1.57,0.66,1.59,1.69c-1.37,1.14-2.6,1.49-3.37-0.63
	C935.19,450.94,935.4,449.94,935.98,449.57z"/>
<path class="st3" d="M922.28,432.91c2.1-4.28,1.24-9.27,3.4-13.57c1.86-3.7,6.7-5.57,10.14-3.61c6.91,3.94,10.5,22.42,5.59,28.63
	c-2.04,2.59-4.92,2.73-7.08,1.2c-3.16-2.24-7.07-4.12-7.28-9.09c-0.09-2.27-3.07-1.67-4.49-2.8
	C922.47,433.42,922.38,433.16,922.28,432.91z"/>
<path class="st17" d="M920.02,426.14c0.87,0.66,2.27,1.18,0.71,2.52C920.06,427.94,919.87,427.09,920.02,426.14z"/>
<path class="st20" d="M940.54,307.23c-2.39,0.46-4.77,0.34-7.15-0.01c-4.36-1.13-8.81-0.21-13.2-0.53c-1.78-0.13-3.61,0.4-5.35-0.37
	c-2.88-0.53-4.54-2.6-5.99-4.86c-3.17-4.94-6.38-9.85-9.33-14.91c-1.21-2.07-2.55-2.53-4.77-2.09c-14.44,2.82-29.12,3.8-43.72,5.39
	c-1.98,0.22-2.86,0.03-2.59-2.24c2.65-21.8,5.81-43.47,15.54-63.53c1.33-2.75,2.9-5.47,4.85-7.8c1.92-2.29,2.15-4.41,1.61-7.24
	c-8.76-45.72,2.65-85.94,33.22-120.97c9.47-10.86,19.28-21.38,29.58-31.45c5.1-4.99,11.7-5.48,16.46-0.7
	c17.9,17.93,35.04,36.48,47.87,58.57c14.43,24.85,19.07,51.57,16.1,79.87c-0.61,5.84-1.38,11.64-2.71,17.37
	c-0.28,1.22-0.57,2.37,0.35,3.56c8.93,11.63,12.64,25.37,15.68,39.33c2.38,10.92,4.03,21.95,4.99,33.1
	c0.27,3.11-0.49,3.86-3.52,3.48c-14.16-1.78-28.39-3.02-42.37-6.01c-2.57-0.55-4.03-0.13-5.42,2.22
	c-3.06,5.16-6.43,10.14-9.75,15.14c-1.82,2.75-4.3,4.55-7.75,4.69C955.62,307.74,948.08,307.73,940.54,307.23z M985.82,146.5h-89.25
	v24.76h89.25V146.5z"/>
</svg>
